<svg width="184" height="24" viewBox="0 0 184 24" fill="none" xmlns="http://www.w3.org/2000/svg">
<path d="M31.0859 5.47656C30.3438 6.53125 29.5625 7.35156 28.7422 7.9375V8.52344C28.7422 11.9609 27.5215 15.0664 25.0801 17.8398C22.6387 20.6133 19.3672 22 15.2656 22C12.6094 22 10.1875 21.2969 8 19.8906C8.23438 19.9297 8.60547 19.9492 9.11328 19.9492C11.3008 19.9492 13.2734 19.2656 15.0312 17.8984C14.0156 17.8594 13.0977 17.5371 12.2773 16.9316C11.457 16.3262 10.8906 15.5547 10.5781 14.6172C10.9688 14.6953 11.2617 14.7344 11.457 14.7344C11.8867 14.7344 12.3164 14.6758 12.7461 14.5586C11.6523 14.3633 10.7441 13.8262 10.0215 12.9473C9.29883 12.0684 8.9375 11.0625 8.9375 9.92969V9.8125C9.71875 10.2422 10.4219 10.457 11.0469 10.457C9.67969 9.51953 8.99609 8.19141 8.99609 6.47266C8.99609 5.57422 9.19141 4.79297 9.58203 4.12891C12.1211 7.21484 15.3828 8.85547 19.3672 9.05078C19.2891 8.58203 19.25 8.23047 19.25 7.99609C19.25 6.66797 19.709 5.54492 20.627 4.62695C21.5449 3.70898 22.668 3.25 23.9961 3.25C25.4023 3.25 26.5547 3.73828 27.4531 4.71484C28.5469 4.48047 29.543 4.10938 30.4414 3.60156C30.0898 4.73438 29.4062 5.59375 28.3906 6.17969C29.2891 6.0625 30.1875 5.82812 31.0859 5.47656Z" fill="#141414"/>
<path d="M73 2H63C60.2386 2 58 4.23858 58 7V17C58 19.7614 60.2386 22 63 22H73C75.7614 22 78 19.7614 78 17V7C78 4.23858 75.7614 2 73 2Z" stroke="#141414" stroke-width="2" stroke-linecap="round" stroke-linejoin="round"/>
<path d="M72 11.3698C72.1234 12.2021 71.9812 13.052 71.5937 13.7988C71.2062 14.5456 70.5931 15.1512 69.8416 15.5295C69.0901 15.9077 68.2384 16.0394 67.4077 15.9057C66.5771 15.7721 65.8097 15.3799 65.2148 14.785C64.6199 14.1901 64.2277 13.4227 64.094 12.592C63.9604 11.7614 64.092 10.9097 64.4703 10.1582C64.8485 9.40667 65.4541 8.79355 66.2009 8.40605C66.9477 8.01856 67.7977 7.8764 68.63 7.99981C69.4789 8.1257 70.2648 8.52128 70.8716 9.12812C71.4785 9.73496 71.8741 10.5209 72 11.3698Z" stroke="#141414" stroke-width="2" stroke-linecap="round" stroke-linejoin="round"/>
<path d="M124.7 1.4375C125.13 1.4375 125.511 1.58398 125.843 1.87695C126.175 2.16992 126.341 2.53125 126.341 2.96094V21.4766C126.341 21.9062 126.175 22.2676 125.843 22.5605C125.511 22.8535 125.13 23 124.7 23H106.302C105.872 23 105.501 22.8535 105.189 22.5605C104.876 22.2676 104.72 21.9062 104.72 21.4766V2.96094C104.72 2.53125 104.876 2.16992 105.189 1.87695C105.501 1.58398 105.872 1.4375 106.302 1.4375H124.7ZM111.107 19.8359V9.52344H107.943V19.8359H111.107ZM109.525 8.11719C110.032 8.11719 110.472 7.93164 110.843 7.56055C111.214 7.18945 111.4 6.75 111.4 6.24219C111.4 5.73438 111.214 5.29492 110.843 4.92383C110.472 4.55273 110.032 4.36719 109.525 4.36719C109.017 4.36719 108.577 4.55273 108.206 4.92383C107.835 5.29492 107.65 5.73438 107.65 6.24219C107.65 6.78906 107.825 7.23828 108.177 7.58984C108.529 7.94141 108.978 8.11719 109.525 8.11719ZM123.118 19.8359V14.1523C123.118 12.5898 122.855 11.3887 122.327 10.5488C121.8 9.70898 120.794 9.28906 119.31 9.28906C117.825 9.28906 116.81 9.83594 116.263 10.9297H116.204V9.52344H113.157V19.8359H116.322V14.7383C116.322 12.9805 116.966 12.1016 118.255 12.1016C118.763 12.1016 119.144 12.2676 119.398 12.5996C119.652 12.9316 119.798 13.2441 119.837 13.5371C119.876 13.8301 119.896 14.25 119.896 14.7969V19.8359H123.118Z" fill="#141414"/>
<path d="M173.971 1.4375C174.283 1.4375 174.566 1.55469 174.82 1.78906C175.074 2.02344 175.201 2.29688 175.201 2.60938V21.8281C175.201 22.1406 175.074 22.4141 174.82 22.6484C174.566 22.8828 174.283 23 173.971 23H168.463V14.6797H171.275L171.686 11.3984H168.463V9.28906C168.463 8.23438 169.01 7.70703 170.104 7.70703H171.803V4.83594C171.217 4.71875 170.377 4.66016 169.283 4.66016C168.033 4.66016 167.027 5.04102 166.266 5.80273C165.504 6.56445 165.123 7.62891 165.123 8.99609V11.3984H162.311V14.6797H165.123V23H154.752C154.439 23 154.166 22.8828 153.932 22.6484C153.697 22.4141 153.58 22.1406 153.58 21.8281V2.60938C153.58 2.29688 153.697 2.02344 153.932 1.78906C154.166 1.55469 154.439 1.4375 154.752 1.4375H173.971Z" fill="#141414"/>
</svg>
